<svg xmlns="http://www.w3.org/2000/svg" width="20.602" height="24.188" viewBox="0 0 20.602 24.188"><defs><style>.a{fill:#363636;}</style></defs><path class="a" d="M17.438,7.313A6.188,6.188,0,1,1,11.25,13.5,6.188,6.188,0,0,1,17.438,7.313Zm0,24.188a13.474,13.474,0,0,1-10.3-4.8,7.839,7.839,0,0,1,6.926-4.2,1.72,1.72,0,0,1,.5.077,9.309,9.309,0,0,0,2.876.485,9.274,9.274,0,0,0,2.876-.485,1.72,1.72,0,0,1,.5-.077,7.839,7.839,0,0,1,6.926,4.2A13.474,13.474,0,0,1,17.438,31.5Z" transform="translate(-7.137 -7.313)"/></svg>