<svg xmlns="http://www.w3.org/2000/svg" width="62.909" height="59.208" viewBox="0 0 62.909 59.208">
  <g id="Group_1741" data-name="Group 1741" transform="translate(-340.42 -149.3)">
    <path id="Path_1527" data-name="Path 1527" d="M7.4,0H55.508a7.4,7.4,0,0,1,7.4,7.4V51.807a7.4,7.4,0,0,1-7.4,7.4H7.4a7.4,7.4,0,0,1-7.4-7.4V7.4A7.4,7.4,0,0,1,7.4,0Z" transform="translate(340.42 149.3)" fill="#c7e3da"/>
    <g id="crowd" transform="translate(349.567 162.348)">
      <g id="Group_1735" data-name="Group 1735" transform="translate(36.771 28.129)">
        <g id="Group_1734" data-name="Group 1734" transform="translate(0 0)">
          <path id="Path_1749" data-name="Path 1749" d="M422.89,388.82h-.021a.871.871,0,1,0,0,1.743h.021a.871.871,0,0,0,0-1.743Z" transform="translate(-421.998 -388.82)" fill="#04724d"/>
        </g>
      </g>
      <g id="Group_1737" data-name="Group 1737">
        <g id="Group_1736" data-name="Group 1736" transform="translate(0 0)">
          <path id="Path_1750" data-name="Path 1750" d="M44.613,95v-.95a5.071,5.071,0,0,0-3.225-4.717,3.981,3.981,0,0,0-3-6.563h-.038a5.051,5.051,0,0,0-2.311-1.828,3.982,3.982,0,0,0-3.01-6.557h-.037a5.05,5.05,0,0,0-2.311-1.828,3.956,3.956,0,1,0-6.02,0,5.05,5.05,0,0,0-2.311,1.828h-.075a5.051,5.051,0,0,0-2.311-1.828,3.956,3.956,0,1,0-6.02,0,5.05,5.05,0,0,0-2.311,1.828h-.037a3.982,3.982,0,0,0-3.01,6.557,5.05,5.05,0,0,0-2.311,1.828H6.23a3.981,3.981,0,0,0-3,6.563A5.07,5.07,0,0,0,0,94.048V98.24a.871.871,0,0,0,.871.871H43.742a.871.871,0,0,0,.871-.871V95Zm-6.23-10.488a2.237,2.237,0,1,1-2.213,2.237A2.228,2.228,0,0,1,38.383,84.511Zm-5.359-8.384a2.237,2.237,0,1,1-2.213,2.237A2.228,2.228,0,0,1,33.024,76.127Zm-5.359-8.384a2.237,2.237,0,1,1-2.213,2.237A2.228,2.228,0,0,1,27.666,67.743Zm-1.2,6.217h2.4a3.262,3.262,0,0,1,2.259.916,3.988,3.988,0,0,0-1.11,6.067A5.049,5.049,0,0,0,27.7,82.769h-.075a5.05,5.05,0,0,0-2.311-1.828,3.988,3.988,0,0,0-1.11-6.067A3.262,3.262,0,0,1,26.466,73.959Zm3.412,12.789a2.213,2.213,0,1,1-2.213-2.237A2.228,2.228,0,0,1,29.878,86.748ZM22.307,76.127a2.237,2.237,0,1,1-2.213,2.237A2.228,2.228,0,0,1,22.307,76.127Zm-5.359-8.384a2.237,2.237,0,1,1-2.213,2.237A2.227,2.227,0,0,1,16.948,67.743Zm-1.2,6.217h2.4a3.261,3.261,0,0,1,2.259.916,3.988,3.988,0,0,0-1.11,6.067,5.05,5.05,0,0,0-2.311,1.828H16.91A5.05,5.05,0,0,0,14.6,80.942a3.988,3.988,0,0,0-1.11-6.067A3.261,3.261,0,0,1,15.749,73.959Zm3.412,12.789a2.213,2.213,0,1,1-2.213-2.237A2.227,2.227,0,0,1,19.161,86.748ZM11.589,76.127a2.237,2.237,0,1,1-2.213,2.237A2.228,2.228,0,0,1,11.589,76.127ZM6.23,84.511a2.237,2.237,0,1,1-2.213,2.237A2.228,2.228,0,0,1,6.23,84.511Zm4.487,12.858H1.743v-1.5h2.7a.871.871,0,0,0,0-1.743h-2.7v-.081a3.324,3.324,0,0,1,3.321-3.321H7.4a3.324,3.324,0,0,1,3.321,3.321Zm.871-6.157a5.09,5.09,0,0,0-2.354-1.88,3.988,3.988,0,0,0-1.1-6.073,3.262,3.262,0,0,1,2.259-.915h2.4a3.261,3.261,0,0,1,2.259.915,3.988,3.988,0,0,0-1.1,6.073A5.09,5.09,0,0,0,11.589,91.211Zm9.846,6.157H12.46V94.048a3.324,3.324,0,0,1,3.321-3.321h2.334a3.324,3.324,0,0,1,3.321,3.321Zm.871-6.157a5.09,5.09,0,0,0-2.354-1.88,3.988,3.988,0,0,0-1.1-6.073,3.261,3.261,0,0,1,2.259-.916h2.4a3.261,3.261,0,0,1,2.259.916,3.988,3.988,0,0,0-1.1,6.073A5.09,5.09,0,0,0,22.307,91.211Zm9.846,6.157H23.178V94.048A3.324,3.324,0,0,1,26.5,90.727h2.334a3.324,3.324,0,0,1,3.321,3.321v3.321Zm.871-6.157a5.09,5.09,0,0,0-2.354-1.88,3.988,3.988,0,0,0-1.1-6.073,3.262,3.262,0,0,1,2.259-.915h2.4a3.262,3.262,0,0,1,2.259.915,3.988,3.988,0,0,0-1.1,6.073A5.09,5.09,0,0,0,33.024,91.211Zm9.846,2.918h-2.7a.871.871,0,1,0,0,1.743h2.7v1.5H33.9V94.048a3.324,3.324,0,0,1,3.321-3.321H39.55a3.324,3.324,0,0,1,3.321,3.321Z" transform="translate(0 -66)" fill="#04724d"/>
        </g>
      </g>
      <g id="Group_1739" data-name="Group 1739" transform="translate(6.079 28.129)">
        <g id="Group_1738" data-name="Group 1738" transform="translate(0 0)">
          <path id="Path_1751" data-name="Path 1751" d="M70.658,388.82h-.02a.871.871,0,0,0,0,1.743h.02a.871.871,0,0,0,0-1.743Z" transform="translate(-69.766 -388.82)" fill="#04724d"/>
        </g>
      </g>
    </g>
  </g>
</svg>
