<svg xmlns="http://www.w3.org/2000/svg" width="22" height="22" viewBox="0 0 22 22">
  <g id="Group_2513" data-name="Group 2513" transform="translate(-987.5 -310.146)">
    <g id="Group_2441" data-name="Group 2441" transform="translate(987.5 310.146)">
      <ellipse id="Ellipse_318" data-name="Ellipse 318" cx="11" cy="11" rx="11" ry="11" fill="#04724d"/>
      <g id="cursor" transform="translate(4.584 4.4)">
        <path id="Path_1877" data-name="Path 1877" d="M9.841,9.025,1.286,12.019a.428.428,0,0,0-.033.795l3.7,1.644,1.644,3.7a.428.428,0,0,0,.391.254h.018a.428.428,0,0,0,.385-.286L10.385,9.57a.428.428,0,0,0-.544-.545Z" transform="translate(-1 -5.579)" fill="#fff"/>
        <path id="Path_1878" data-name="Path 1878" d="M21.428,1A.428.428,0,0,0,21,1.428V3.139a.428.428,0,1,0,.855,0V1.428A.428.428,0,0,0,21.428,1Z" transform="translate(-12.445 -1)" fill="#fff"/>
        <path id="Path_1879" data-name="Path 1879" d="M27.139,9H25.428a.428.428,0,1,0,0,.855h1.711a.428.428,0,0,0,0-.855Z" transform="translate(-14.734 -5.578)" fill="#fff"/>
        <path id="Path_1880" data-name="Path 1880" d="M24.73,12.125a.428.428,0,1,0-.6.6L25.195,13.8a.428.428,0,1,0,.6-.6Z" transform="translate(-14.162 -7.295)" fill="#fff"/>
        <path id="Path_1881" data-name="Path 1881" d="M16.695,5.3a.428.428,0,1,0,.6-.6L16.23,3.625a.428.428,0,1,0-.6.6Z" transform="translate(-9.298 -2.431)" fill="#fff"/>
        <path id="Path_1882" data-name="Path 1882" d="M24.428,5.425a.428.428,0,0,0,.3-.125L25.8,4.23a.428.428,0,1,0-.6-.6L24.125,4.695a.428.428,0,0,0,.3.73Z" transform="translate(-14.162 -2.431)" fill="#fff"/>
      </g>
    </g>
  </g>
</svg>
