<svg xmlns="http://www.w3.org/2000/svg" width="28" height="26" viewBox="0 0 28 26">
  <g id="Group_1990" data-name="Group 1990" transform="translate(-264 -371)">
    <rect id="Rectangle_1901" data-name="Rectangle 1901" width="28" height="26" rx="6" transform="translate(264 371)" fill="#fff"/>
    <g id="programming_1_" data-name="programming (1)" transform="translate(270 335.956)">
      <path id="Path_1824" data-name="Path 1824" d="M0,177.711v9.273H16.191v-9.273Zm9.731,3.053.671-.671,2.243,2.243L10.4,184.58l-.671-.671,1.573-1.573ZM8.307,179.2l.926.206-1.349,6.071-.926-.206Zm-2.518.9.671.671-1.573,1.573L6.46,183.91l-.671.671-2.243-2.243Z" transform="translate(0 -132.345)" fill="#21745d"/>
      <path id="Path_1825" data-name="Path 1825" d="M16.191,44.417V41.044H0v3.373ZM3.255,43.2H2.306v-.949h.949Zm1.983,0H4.289v-.949h.949Zm1.983,0H6.272v-.949H7.22Z" fill="#c69e5d"/>
    </g>
  </g>
</svg>
