<svg xmlns="http://www.w3.org/2000/svg" width="24" height="24" viewBox="0 0 24 24">
  <g id="Group_2535" data-name="Group 2535" transform="translate(19153.916 7127.705)">
    <path id="Path_1422" data-name="Path 1422" d="M12,0A12,12,0,1,1,0,12,12,12,0,0,1,12,0Z" transform="translate(-19153.916 -7127.705)" fill="#e6ecf6"/>
    <g id="bubble-chat" transform="translate(-19148.502 -7152.493)">
      <path id="Path_1908" data-name="Path 1908" d="M7.8,31.782A5.323,5.323,0,0,0,5.016,31,4.835,4.835,0,0,0,0,35.63a4.346,4.346,0,0,0,.821,2.54L.07,40.529a.386.386,0,0,0,.543.461L2.9,39.828q.139.06.281.111a5.1,5.1,0,0,1-.812-2.766A5.575,5.575,0,0,1,7.8,31.782Z" fill="#21745d"/>
      <path id="Path_1909" data-name="Path 1909" d="M131.211,98.17a4.346,4.346,0,0,0,.821-2.54,5.032,5.032,0,1,0-5.016,4.63,5.4,5.4,0,0,0,2.119-.432l2.285,1.162a.386.386,0,0,0,.543-.461Zm-5.764-2.154a.386.386,0,1,1,.386-.386A.386.386,0,0,1,125.447,96.016Zm1.543,0a.386.386,0,1,1,.386-.386A.386.386,0,0,1,126.99,96.016Zm1.543,0a.386.386,0,1,1,.386-.386A.386.386,0,0,1,128.534,96.016Z" transform="translate(-118.862 -58.457)" fill="#21745d"/>
    </g>
  </g>
</svg>
