<svg xmlns="http://www.w3.org/2000/svg" width="27" height="27" viewBox="0 0 27 27"><defs><style>.a{fill:#c69e5d;}.b{fill:#fff;}</style></defs><g transform="translate(-670 -597)"><circle class="a" cx="13.5" cy="13.5" r="13.5" transform="translate(670 597)"/><g transform="translate(676.513 602.969)"><g transform="translate(1 2.721)"><path class="b" d="M9.436,15.341H2.361A1.363,1.363,0,0,1,1,13.981V6.361A1.363,1.363,0,0,1,2.361,5H2.9a.272.272,0,1,1,0,.544H2.361a.817.817,0,0,0-.816.816v7.62a.817.817,0,0,0,.816.816H9.436a.817.817,0,0,0,.816-.816v-.544a.272.272,0,0,1,.544,0v.544A1.363,1.363,0,0,1,9.436,15.341Z" transform="translate(-1 -5)"/></g><g transform="translate(4.266)"><path class="b" d="M14.348,9.8H8.361A1.363,1.363,0,0,1,7,8.436V1.361A1.363,1.363,0,0,1,8.361,0h5.987a1.363,1.363,0,0,1,1.361,1.361V8.436A1.363,1.363,0,0,1,14.348,9.8ZM8.361.544a.817.817,0,0,0-.816.816V8.436a.817.817,0,0,0,.816.816h5.987a.817.817,0,0,0,.816-.816V1.361a.817.817,0,0,0-.816-.816Z" transform="translate(-7)"/></g></g></g></svg>