<svg xmlns="http://www.w3.org/2000/svg" width="13.236" height="13.236" viewBox="0 0 13.236 13.236">
  <g id="Icon_feather-copy" data-name="Icon feather-copy" transform="translate(-2.5 -2.5)">
    <path id="Path_1810" data-name="Path 1810" d="M14.724,13.5H20.23a1.224,1.224,0,0,1,1.224,1.224V20.23a1.224,1.224,0,0,1-1.224,1.224H14.724A1.224,1.224,0,0,1,13.5,20.23V14.724A1.224,1.224,0,0,1,14.724,13.5Z" transform="translate(-6.217 -6.217)" fill="none" stroke="#04724d" stroke-linecap="round" stroke-linejoin="round" stroke-width="1"/>
    <path id="Path_1811" data-name="Path 1811" d="M4.835,10.954H4.224A1.224,1.224,0,0,1,3,9.73V4.224A1.224,1.224,0,0,1,4.224,3H9.73a1.224,1.224,0,0,1,1.224,1.224v.612" transform="translate(0 0)" fill="none" stroke="#04724d" stroke-linecap="round" stroke-linejoin="round" stroke-width="1"/>
  </g>
</svg>
