<svg xmlns="http://www.w3.org/2000/svg" width="26" height="26" viewBox="0 0 26 26">
  <g id="Group_1705" data-name="Group 1705" transform="translate(-435 -231.607)">
    <circle id="Ellipse_179" data-name="Ellipse 179" cx="13" cy="13" r="13" transform="translate(435 231.607)" fill="rgba(33,116,93,0.08)"/>
    <g id="job" transform="translate(410.545 237.263)">
      <path id="Path_1728" data-name="Path 1728" d="M216.595,243.721a1.721,1.721,0,1,0-3.443,0H211v.861c0,1.339,2.505,1.721,3.873,1.721s3.873-.38,3.873-1.721v-.861Zm-2.582,0a.861.861,0,0,1,1.721,0Z" transform="translate(-174.836 -235.057)" fill="#c69e5d"/>
      <path id="Path_1729" data-name="Path 1729" d="M215.3,389.487h-.861v-.87A6.467,6.467,0,0,1,211,387.64v3.568h7.747V387.64a6.464,6.464,0,0,1-3.443.977Z" transform="translate(-174.836 -376.518)" fill="#c69e5d"/>
      <path id="Path_1730" data-name="Path 1730" d="M38.115,6.943H34.443V6.082h4.3v.346a2.58,2.58,0,0,1,1.721-.31V0H31V13.829h4.3V7.8h2.3A2.585,2.585,0,0,1,38.115,6.943Zm-3.672-4.3h4.3V3.5h-4.3Zm0,1.721h4.3v.861h-4.3Zm-.861,2.582h-.861V6.082h.861Zm0-1.721h-.861V4.361h.861Zm0-1.721h-.861V2.64h.861Z" transform="translate(0)" fill="#21745d"/>
    </g>
  </g>
</svg>
