<svg id="Group_2425" data-name="Group 2425" xmlns="http://www.w3.org/2000/svg" width="33.658" height="33.659" viewBox="0 0 33.658 33.659">
  <ellipse id="Ellipse_284" data-name="Ellipse 284" cx="16.829" cy="16.83" rx="16.829" ry="16.83" transform="translate(0 0)" fill="#d8dce2"/>
  <g id="gmail" transform="translate(7.989 10.198)">
    <rect id="Rectangle_2093" data-name="Rectangle 2093" width="13.191" height="13.192" transform="translate(1.979 0)" fill="#eceff1"/>
    <path id="Path_1839" data-name="Path 1839" d="M256,153.772l6.63,5.235V148.672Z" transform="translate(-247.161 -145.748)" fill="#cfd8dc"/>
    <path id="Path_1840" data-name="Path 1840" d="M16.021,64h-.552l-6.63,5.235L2.21,64H1.657A1.658,1.658,0,0,0,0,65.657V75.6a1.658,1.658,0,0,0,1.657,1.657H2.21V66.924l6.63,5.1,6.63-5.1V77.259h.552A1.658,1.658,0,0,0,17.679,75.6V65.657A1.658,1.658,0,0,0,16.021,64Z" transform="translate(0 -64)" fill="#f44336"/>
  </g>
</svg>
