<svg xmlns="http://www.w3.org/2000/svg" width="25" height="25" viewBox="0 0 25 25"><defs><style>.a{fill:#d5e7e1;}.b{fill:#04724d;}</style></defs><g transform="translate(-825 -384)"><rect class="a" width="25" height="25" rx="1" transform="translate(825 384)"/><path class="b" d="M8.529,9.043H7.186v1.343H8.529Zm2.686,0H9.872v1.343h1.343Zm2.686,0H12.557v1.343H13.9Zm1.343-4.7h-.671V3H13.229V4.343H7.857V3H6.514V4.343H5.843A1.337,1.337,0,0,0,4.507,5.686l-.007,9.4a1.343,1.343,0,0,0,1.343,1.343h9.4a1.347,1.347,0,0,0,1.343-1.343v-9.4A1.347,1.347,0,0,0,15.243,4.343Zm0,10.743h-9.4V7.7h9.4Z" transform="translate(826.5 387)"/></g></svg>