<svg xmlns="http://www.w3.org/2000/svg" width="25" height="25" viewBox="0 0 25 25"><defs><style>.a{fill:#d5e7e1;}.b{fill:#04724d;}</style></defs><g transform="translate(-1101 -297)"><rect class="a" width="25" height="25" rx="1" transform="translate(1101 297)"/><g transform="translate(1106.358 302.358)"><path class="b" d="M333.522,33.814a1.681,1.681,0,1,1-1.681-1.681A1.681,1.681,0,0,1,333.522,33.814Zm0,0" transform="translate(-321.268 -31.267)"/><path class="b" d="M7.664,4.724l-.8-1.2V1.486A1.485,1.485,0,0,0,5.381,0H1.486A1.485,1.485,0,0,0,0,1.486v2.38A1.485,1.485,0,0,0,1.486,5.352H7.328a.4.4,0,0,0,.336-.628ZM3.422,3.837H2.146a.411.411,0,0,1-.415-.385.4.4,0,0,1,.4-.423h1.3a.4.4,0,0,1,.4.423A.411.411,0,0,1,3.422,3.837Zm1.31-1.515H2.146a.412.412,0,0,1-.415-.384.4.4,0,0,1,.4-.424H4.72a.411.411,0,0,1,.415.385.4.4,0,0,1-.4.423Zm0,0" transform="translate(0 0)"/><path class="b" d="M3.137,372.151A3.171,3.171,0,0,0,0,375.333v.089a.5.5,0,0,0,.5.5H5.8a.5.5,0,0,0,.5-.5V375.3A3.148,3.148,0,0,0,3.137,372.151Zm0,0" transform="translate(0 -362.127)"/><path class="b" d="M47.254,226.916a1.983,1.983,0,1,1-1.983-1.983A1.983,1.983,0,0,1,47.254,226.916Zm0,0" transform="translate(-42.123 -218.875)"/><path class="b" d="M303,159.213h-5.1a2.568,2.568,0,0,1,5.1,0Zm0,0" transform="translate(-289.874 -152.722)"/><path class="b" d="M204.138,272a.4.4,0,0,1,.4.4v4.791a.4.4,0,0,1-.424.4.412.412,0,0,1-.384-.415v-.45H197.7a3.974,3.974,0,0,0-1.666-2.219A2.787,2.787,0,0,0,196.6,272Zm0,0" transform="translate(-190.751 -264.674)"/></g></g></svg>