<svg xmlns="http://www.w3.org/2000/svg" width="24.182" height="24.182" viewBox="0 0 24.182 24.182">
  <path id="Icon_ionic-ios-close-circle" data-name="Icon ionic-ios-close-circle" d="M15.466,3.375A12.091,12.091,0,1,0,27.557,15.466,12.089,12.089,0,0,0,15.466,3.375Zm3.063,16.468L15.466,16.78,12.4,19.843a.929.929,0,1,1-1.314-1.314l3.063-3.063L11.089,12.4A.929.929,0,0,1,12.4,11.089l3.063,3.063,3.063-3.063A.929.929,0,1,1,19.843,12.4L16.78,15.466l3.063,3.063a.933.933,0,0,1,0,1.314A.923.923,0,0,1,18.529,19.843Z" transform="translate(-3.375 -3.375)" fill="#c3c0c0"/>
</svg>
