<svg xmlns="http://www.w3.org/2000/svg" width="12.129" height="12.761" viewBox="0 0 12.129 12.761">
  <g id="Group_2397" data-name="Group 2397" transform="translate(-1142 -167.828)">
    <g id="Group_2154" data-name="Group 2154" transform="translate(1152.945 171.584)">
      <g id="Group_2153" data-name="Group 2153">
        <path id="Path_1831" data-name="Path 1831" d="M350.825,117.05v1.592l1.011-.751Z" transform="translate(-350.825 -117.05)" fill="#21745d"/>
      </g>
    </g>
    <g id="Group_2156" data-name="Group 2156" transform="translate(1147.043 167.828)">
      <g id="Group_2155" data-name="Group 2155" transform="translate(0 0)">
        <path id="Path_1832" data-name="Path 1832" d="M168.562.223a.964.964,0,0,0-1.229,0l-.408.347h2.051Z" transform="translate(-166.925 0)" fill="#21745d"/>
      </g>
    </g>
    <g id="Group_2158" data-name="Group 2158" transform="translate(1142 173.078)">
      <g id="Group_2157" data-name="Group 2157" transform="translate(0)">
        <path id="Path_1833" data-name="Path 1833" d="M16.847,167.366a1.573,1.573,0,0,1-.953.315,1.6,1.6,0,0,1-.956-.315L9.824,163.55v6.544a.96.96,0,0,0,.953.966H21a.96.96,0,0,0,.953-.966V163.55Z" transform="translate(-9.824 -163.55)" fill="#21745d"/>
      </g>
    </g>
    <g id="Group_2160" data-name="Group 2160" transform="translate(1142.176 171.613)">
      <g id="Group_2159" data-name="Group 2159" transform="translate(0)">
        <path id="Path_1834" data-name="Path 1834" d="M15.325,118.762l.979.729V117.95Z" transform="translate(-15.325 -117.95)" fill="#21745d"/>
      </g>
    </g>
    <g id="Group_2162" data-name="Group 2162" transform="translate(1143.797 169.037)">
      <g id="Group_2161" data-name="Group 2161" transform="translate(0)">
        <path id="Path_1835" data-name="Path 1835" d="M65.825,37.65v4.6l3.691,2.747a.988.988,0,0,0,1.159,0l3.656-2.725V37.65ZM68.1,40.218h1.733a.321.321,0,1,1,0,.642H68.1a.321.321,0,1,1,0-.642Zm3.98,2.247H68.1a.321.321,0,1,1,0-.642h3.98a.321.321,0,1,1,0,.642Z" transform="translate(-65.825 -37.65)" fill="#21745d"/>
      </g>
    </g>
  </g>
</svg>
