<svg id="Group_2263" data-name="Group 2263" xmlns="http://www.w3.org/2000/svg" width="14.175" height="13.483" viewBox="0 0 14.175 13.483">
  <g id="Group_2262" data-name="Group 2262" transform="translate(0 0)">
    <path id="Path_1845" data-name="Path 1845" d="M14.126,123.736l-1.846-3.972a.33.33,0,0,0-.313-.165H10.384a.33.33,0,1,0,0,.659h1.368l1.533,3.3H11.406a2.159,2.159,0,0,0-1.978,1.269,1.533,1.533,0,0,1-1.385.874H6.132a1.533,1.533,0,0,1-1.385-.874,2.159,2.159,0,0,0-1.978-1.269H.923l1.813-3.3H3.791a.33.33,0,1,0,0-.659H2.538a.313.313,0,0,0-.3.148L.066,123.736a.2.2,0,0,0-.066.132v4.1a1.731,1.731,0,0,0,1.7,1.681h10.78a1.731,1.731,0,0,0,1.7-1.681v-4.1A.313.313,0,0,0,14.126,123.736Z" transform="translate(0 -116.17)" fill="#21745d"/>
    <path id="Path_1846" data-name="Path 1846" d="M146.5,18.6a.313.313,0,0,0,.442.019l.019-.019,2.242-2.258a.33.33,0,0,0-.462-.462l-1.681,1.681V11.3a.33.33,0,1,0-.659,0v6.264l-1.681-1.681a.33.33,0,0,0-.462.462Z" transform="translate(-139.645 -10.971)" fill="#21745d"/>
  </g>
</svg>
