<svg id="hand-shake" xmlns="http://www.w3.org/2000/svg" width="75.428" height="47.141" viewBox="0 0 75.428 47.141">
  <g id="Group_524" data-name="Group 524" transform="translate(10.996 3.338)">
    <g id="Group_523" data-name="Group 523">
      <path id="Path_1305" data-name="Path 1305" d="M123.2,147.644c-1.48-3.086-6.776-7.37-11.892-11.509-2.854-2.307-5.55-4.488-7.269-6.207a1.571,1.571,0,0,0-1.644-.368c-1.059.383-1.713.679-2.228.908a5.2,5.2,0,0,1-2.109.578,1.571,1.571,0,0,0-1.15.688c-2.222,3.322-4.523,3.039-6.059,2.524-.49-.163-.578-.374-.625-.575-.33-1.38,1.326-4.592,3.473-6.738,5.107-5.11,7.741-6.389,13.3-3.9,6.311,2.822,12.634,5.032,12.7,5.054a1.572,1.572,0,1,0,1.034-2.97c-.063-.022-6.26-2.187-12.446-4.956-7.206-3.221-11.16-1.1-16.808,4.551-2.15,2.15-5.069,6.5-4.315,9.689a3.887,3.887,0,0,0,2.7,2.832c3.561,1.175,6.81.05,9.23-3.162a7.933,7.933,0,0,0,2.36-.748c.3-.132.641-.286,1.1-.471,1.8,1.688,4.224,3.652,6.779,5.717,4.62,3.737,9.859,7.973,11.038,10.425a1.841,1.841,0,0,1-.468,2.36,1.732,1.732,0,0,1-1.936.38,1.571,1.571,0,0,0-2.454,1.461,1.9,1.9,0,0,1-1.2,1.769,2.412,2.412,0,0,1-2.448.057,1.571,1.571,0,0,0-2.637,1,2.986,2.986,0,0,1-1.854,2.407,1.657,1.657,0,0,1-1.8-.28,1.59,1.59,0,0,0-1.436-.365,1.569,1.569,0,0,0-1.1.99c-.06.157-.195.534-1.666.534A9.049,9.049,0,0,1,97.51,158c-1.1-.726-8.021-5.886-13.995-10.89-.839-.707-2.291-2.222-3.573-3.561-1.138-1.188-2.178-2.266-2.712-2.718a1.572,1.572,0,1,0-2.03,2.4c.487.412,1.43,1.408,2.47,2.492,1.4,1.464,2.85,2.979,3.825,3.8,5.852,4.9,12.886,10.189,14.287,11.11a12.056,12.056,0,0,0,5.579,1.829,5.408,5.408,0,0,0,3.567-1.05,4.892,4.892,0,0,0,3.573-.038,6.19,6.19,0,0,0,3.272-3.02,6.077,6.077,0,0,0,3.944-.569,5.332,5.332,0,0,0,2.624-2.741,5.139,5.139,0,0,0,3.6-1.292A5,5,0,0,0,123.2,147.644Z" transform="translate(-74.642 -118.658)" fill="#04724d"/>
    </g>
  </g>
  <g id="Group_526" data-name="Group 526" transform="translate(15.714 6.285)">
    <g id="Group_525" data-name="Group 525">
      <path id="Path_1306" data-name="Path 1306" d="M122.38,138.663H108.237a1.571,1.571,0,1,0,0,3.143H122.38a1.571,1.571,0,1,0,0-3.143Z" transform="translate(-106.666 -138.663)" fill="#04724d"/>
    </g>
  </g>
  <g id="Group_528" data-name="Group 528" transform="translate(56.69 28.282)">
    <g id="Group_527" data-name="Group 527">
      <path id="Path_1307" data-name="Path 1307" d="M392.281,288.675a1.567,1.567,0,0,0-2.181-.427l-4.595,3.086a1.572,1.572,0,0,0,1.754,2.609l4.595-3.086A1.573,1.573,0,0,0,392.281,288.675Z" transform="translate(-384.811 -287.977)" fill="#04724d"/>
    </g>
  </g>
  <g id="Group_530" data-name="Group 530" transform="translate(42.43 26.711)">
    <g id="Group_529" data-name="Group 529">
      <path id="Path_1308" data-name="Path 1308" d="M299.99,287.084c-1.125-.886-6.157-6.037-9.268-9.281a1.572,1.572,0,1,0-2.269,2.175c.808.842,7.932,8.269,9.589,9.576a1.565,1.565,0,0,0,.971.336,1.588,1.588,0,0,0,1.238-.6A1.57,1.57,0,0,0,299.99,287.084Z" transform="translate(-288.016 -277.317)" fill="#04724d"/>
    </g>
  </g>
  <g id="Group_532" data-name="Group 532" transform="translate(37.715 31.428)">
    <g id="Group_531" data-name="Group 531" transform="translate(0 0)">
      <path id="Path_1309" data-name="Path 1309" d="M266.416,317.539c-1.883-1.505-6.612-6.531-7.681-7.694a1.573,1.573,0,0,0-2.316,2.128c.057.06,5.7,6.154,8.033,8.021a1.572,1.572,0,0,0,1.964-2.455Z" transform="translate(-256.005 -309.337)" fill="#04724d"/>
    </g>
  </g>
  <g id="Group_534" data-name="Group 534" transform="translate(31.43 34.567)">
    <g id="Group_533" data-name="Group 533">
      <path id="Path_1310" data-name="Path 1310" d="M223.785,338.872c-2.241-1.889-6.826-6.77-7.722-7.728a1.572,1.572,0,1,0-2.3,2.147c1.289,1.38,5.676,6.031,7.992,7.986a1.572,1.572,0,0,0,2.027-2.4Z" transform="translate(-213.343 -330.644)" fill="#04724d"/>
    </g>
  </g>
  <g id="Group_536" data-name="Group 536">
    <g id="Group_535" data-name="Group 535">
      <path id="Path_1311" data-name="Path 1311" d="M18.367,99.576C15.673,97.024,4.9,96.2,1.666,96.006A1.57,1.57,0,0,0,0,97.574v28.285a1.572,1.572,0,0,0,1.571,1.571H11a1.57,1.57,0,0,0,1.493-1.084c.229-.7,5.645-17.323,6.358-25.495A1.563,1.563,0,0,0,18.367,99.576ZM9.853,124.288H3.143V99.258c5.051.4,10.5,1.267,12.48,2.228C14.79,108.369,11.022,120.6,9.853,124.288Z" transform="translate(0 -96.003)" fill="#04724d"/>
    </g>
  </g>
  <g id="Group_538" data-name="Group 538" transform="translate(53.484 3.142)">
    <g id="Group_537" data-name="Group 537" transform="translate(0 0)">
      <path id="Path_1312" data-name="Path 1312" d="M383.419,117.33c-12.339,0-19.184,3.159-19.47,3.291a1.564,1.564,0,0,0-.839.977,1.585,1.585,0,0,0,.173,1.276c1.942,3.127,8.024,20.494,9.193,24.731a1.571,1.571,0,0,0,1.515,1.153h9.428a1.572,1.572,0,0,0,1.572-1.571V118.9A1.57,1.57,0,0,0,383.419,117.33Zm-1.571,28.285h-6.682c-1.49-4.853-5.89-17.506-8.344-22.735a51.182,51.182,0,0,1,15.026-2.389Z" transform="translate(-363.046 -117.33)" fill="#04724d"/>
    </g>
  </g>
</svg>
