<svg xmlns="http://www.w3.org/2000/svg" width="22" height="22" viewBox="0 0 22 22">
  <g id="Group_2450" data-name="Group 2450" transform="translate(-987.5 -364.555)">
    <g id="Group_2442" data-name="Group 2442" transform="translate(987.5 364.555)">
      <ellipse id="Ellipse_318" data-name="Ellipse 318" cx="11" cy="11" rx="11" ry="11" fill="#04724d"/>
      <g id="enter_1_" data-name="enter (1)" transform="translate(5.333 5.758)">
        <path id="Path_1883" data-name="Path 1883" d="M176.706.007c-.011,0-.02-.007-.031-.007h-4.7a1.312,1.312,0,0,0-1.311,1.311v.437a.437.437,0,1,0,.874,0V1.311a.438.438,0,0,1,.437-.437h2.035l-.133.045a.878.878,0,0,0-.591.829V8.3h-1.311a.438.438,0,0,1-.437-.437V6.99a.437.437,0,0,0-.874,0v.874a1.312,1.312,0,0,0,1.311,1.311h1.311v.437a.875.875,0,0,0,.874.874.917.917,0,0,0,.278-.043l2.625-.875a.878.878,0,0,0,.592-.829V.874a.875.875,0,0,0-.951-.867Zm0,0" transform="translate(-167.173)" fill="#fff"/>
        <path id="Path_1884" data-name="Path 1884" d="M4.677,108.538,2.93,106.791a.437.437,0,0,0-.746.309v1.311H.437a.437.437,0,0,0,0,.874H2.184v1.311a.437.437,0,0,0,.746.309l1.747-1.747a.436.436,0,0,0,0-.618Zm0,0" transform="translate(0 -104.479)" fill="#fff"/>
      </g>
    </g>
  </g>
</svg>
