<svg xmlns="http://www.w3.org/2000/svg" width="28" height="26" viewBox="0 0 28 26">
  <g id="Group_1989" data-name="Group 1989" transform="translate(-264 -314)">
    <rect id="Rectangle_1901" data-name="Rectangle 1901" width="28" height="26" rx="6" transform="translate(264 314)" fill="#fff"/>
    <g id="exam" transform="translate(211 319)">
      <g id="Group_1986" data-name="Group 1986" transform="translate(63.837)">
        <g id="Group_1985" data-name="Group 1985" transform="translate(0)">
          <path id="Path_1822" data-name="Path 1822" d="M156.2.946h-.554a1.419,1.419,0,0,0-2.675,0h-.554A1.42,1.42,0,0,0,151,2.364a.473.473,0,0,0,.473.473h5.674a.473.473,0,0,0,.473-.473A1.42,1.42,0,0,0,156.2.946Z" transform="translate(-151)" fill="#c69e5d"/>
        </g>
      </g>
      <g id="Group_1988" data-name="Group 1988" transform="translate(61 1.891)">
        <g id="Group_1987" data-name="Group 1987" transform="translate(0)">
          <path id="Path_1823" data-name="Path 1823" d="M71.875,60h-.521a2.364,2.364,0,0,1,.048.473,1.42,1.42,0,0,1-1.418,1.418H64.31a1.42,1.42,0,0,1-1.418-1.418A2.363,2.363,0,0,1,62.939,60h-.521A1.42,1.42,0,0,0,61,61.418v11.41a1.42,1.42,0,0,0,1.418,1.418h9.456a1.42,1.42,0,0,0,1.418-1.418V61.418A1.42,1.42,0,0,0,71.875,60ZM65.728,71.347H63.837a.473.473,0,1,1,0-.946h1.891a.473.473,0,0,1,0,.946Zm0-3.31H63.837a.473.473,0,1,1,0-.946h1.891a.473.473,0,0,1,0,.946Zm0-3.31H63.837a.473.473,0,1,1,0-.946h1.891a.473.473,0,0,1,0,.946Zm4.59,6.758a.473.473,0,1,1-.669.669l-.611-.611-.611.611a.473.473,0,0,1-.669-.669l.611-.611-.611-.611a.473.473,0,0,1,.669-.669l.611.611.611-.611a.473.473,0,0,1,.669.669l-.611.611Zm.473-4.532-1.418,1.418a.473.473,0,0,1-.669,0l-.946-.946a.473.473,0,0,1,.669-.669l.611.611,1.084-1.084a.473.473,0,1,1,.669.669Zm0-2.837-1.418,1.418a.473.473,0,0,1-.669,0l-.946-.946a.473.473,0,0,1,.669-.669l.611.611,1.084-1.084a.473.473,0,1,1,.669.669Z" transform="translate(-61 -60)" fill="#21745d"/>
        </g>
      </g>
    </g>
  </g>
</svg>
