<svg id="Group_1989" data-name="Group 1989" xmlns="http://www.w3.org/2000/svg" width="25.733" height="23.895" viewBox="0 0 25.733 23.895">
  <rect id="Rectangle_1901" data-name="Rectangle 1901" width="25.733" height="23.895" rx="6" fill="#fff"/>
  <g id="exam" transform="translate(7.352 4.595)">
    <g id="Group_1986" data-name="Group 1986" transform="translate(2.607)">
      <g id="Group_1985" data-name="Group 1985" transform="translate(0)">
        <path id="Path_1822" data-name="Path 1822" d="M155.78.869h-.509a1.3,1.3,0,0,0-2.459,0H152.3a1.305,1.305,0,0,0-1.3,1.3.434.434,0,0,0,.435.435h5.214a.434.434,0,0,0,.435-.435A1.305,1.305,0,0,0,155.78.869Z" transform="translate(-151)" fill="#c69e5d"/>
      </g>
    </g>
    <g id="Group_1988" data-name="Group 1988" transform="translate(0 1.738)">
      <g id="Group_1987" data-name="Group 1987">
        <path id="Path_1823" data-name="Path 1823" d="M70.994,60h-.479a2.173,2.173,0,0,1,.044.435,1.305,1.305,0,0,1-1.3,1.3H64.042a1.305,1.305,0,0,1-1.3-1.3A2.172,2.172,0,0,1,62.782,60H62.3A1.305,1.305,0,0,0,61,61.3V71.79a1.305,1.305,0,0,0,1.3,1.3h8.691a1.305,1.305,0,0,0,1.3-1.3V61.3A1.305,1.305,0,0,0,70.994,60ZM65.345,70.429H63.607a.435.435,0,0,1,0-.869h1.738a.435.435,0,0,1,0,.869Zm0-3.042H63.607a.435.435,0,1,1,0-.869h1.738a.435.435,0,0,1,0,.869Zm0-3.042H63.607a.435.435,0,1,1,0-.869h1.738a.435.435,0,1,1,0,.869Zm4.218,6.211a.434.434,0,1,1-.614.614l-.562-.562-.562.562a.434.434,0,0,1-.614-.614l.562-.562-.562-.562a.434.434,0,0,1,.614-.614l.562.562.562-.562a.434.434,0,0,1,.614.614L69,69.994ZM70,66.391l-1.3,1.3a.434.434,0,0,1-.614,0l-.869-.869a.434.434,0,0,1,.614-.614l.562.562,1-1a.434.434,0,1,1,.614.614Zm0-2.607-1.3,1.3a.434.434,0,0,1-.614,0l-.869-.869a.434.434,0,0,1,.614-.614l.562.562,1-1a.434.434,0,1,1,.614.614Z" transform="translate(-61 -60)" fill="#21745d"/>
      </g>
    </g>
  </g>
</svg>
