<svg xmlns="http://www.w3.org/2000/svg" width="78.628" height="54.003" viewBox="0 0 78.628 54.003">
  <g id="Group_512" data-name="Group 512" transform="translate(-608.796 -481.27)">
    <g id="Untitled-2" transform="translate(610.353 483.77)">
      <g id="Layer_3" data-name="Layer 3" transform="translate(0)">
        <path id="Path_1264" data-name="Path 1264" d="M96.271,955.249l35.8.252s3.345-18.3-18.3-18.3C92.938,937.2,96.271,955.249,96.271,955.249Z" transform="translate(-76.084 -916.121)" fill="none" stroke="#04724d" stroke-width="3"/>
        <circle id="Ellipse_119" data-name="Ellipse 119" cx="8.835" cy="8.835" r="8.835" transform="translate(28.103 -1)" fill="none" stroke="#04724d" stroke-width="3"/>
        <path id="Path_1265" data-name="Path 1265" d="M124.411,954.356h19.9s2.979-12.7-12.685-12.786a15.6,15.6,0,0,0-8.091,2.436" transform="translate(-69.029 -914.976)" fill="none" stroke="#04724d" stroke-width="3"/>
        <circle id="Ellipse_120" data-name="Ellipse 120" cx="5.049" cy="5.049" r="5.049" transform="translate(57.984 11.884)" fill="none" stroke="#04724d" stroke-width="3"/>
        <path id="Path_1266" data-name="Path 1266" d="M101.365,954.1H80.539s-2.752-12.445,12.912-12.534a15.6,15.6,0,0,1,8.091,2.436" transform="translate(-80.353 -914.976)" fill="none" stroke="#04724d" stroke-width="3"/>
        <circle id="Ellipse_121" data-name="Ellipse 121" cx="5.049" cy="5.049" r="5.049" transform="translate(6.567 11.884)" fill="none" stroke="#04724d" stroke-width="3"/>
        <ellipse id="Ellipse_122" data-name="Ellipse 122" cx="12" cy="11.5" rx="12" ry="11.5" transform="translate(26.49 27.504)" fill="#fff"/>
        <text id="_1" data-name="1" transform="translate(35.49 45.503)" fill="#04724d" font-size="18" font-family="Poppins-Bold, Poppins" font-weight="700"><tspan x="0" y="0">1</tspan></text>
      </g>
    </g>
  </g>
</svg>
