<svg xmlns="http://www.w3.org/2000/svg" width="78.628" height="53.004" viewBox="0 0 78.628 53.004">
  <g id="Group_517" data-name="Group 517" transform="translate(-981.953 -821.997)">
    <g id="Group_514" data-name="Group 514" transform="translate(373.157 340.727)">
      <g id="Untitled-2" transform="translate(610.353 483.77)">
        <g id="Layer_3" data-name="Layer 3" transform="translate(0)">
          <path id="Path_1264" data-name="Path 1264" d="M96.271,955.249l35.8.252s3.345-18.3-18.3-18.3C92.938,937.2,96.271,955.249,96.271,955.249Z" transform="translate(-76.084 -916.121)" fill="none" stroke="#04724d" stroke-width="3"/>
          <circle id="Ellipse_119" data-name="Ellipse 119" cx="8.835" cy="8.835" r="8.835" transform="translate(29.103 -1)" fill="none" stroke="#04724d" stroke-width="3"/>
          <path id="Path_1265" data-name="Path 1265" d="M124.411,954.356h19.9s2.979-12.7-12.685-12.786a15.6,15.6,0,0,0-8.091,2.436" transform="translate(-69.029 -914.976)" fill="none" stroke="#04724d" stroke-width="3"/>
          <circle id="Ellipse_120" data-name="Ellipse 120" cx="5.049" cy="5.049" r="5.049" transform="translate(57.984 11.884)" fill="none" stroke="#04724d" stroke-width="3"/>
          <path id="Path_1266" data-name="Path 1266" d="M101.365,954.1H80.539s-2.752-12.445,12.912-12.534a15.6,15.6,0,0,1,8.091,2.436" transform="translate(-80.353 -914.976)" fill="none" stroke="#04724d" stroke-width="3"/>
          <circle id="Ellipse_121" data-name="Ellipse 121" cx="5.049" cy="5.049" r="5.049" transform="translate(6.567 11.884)" fill="none" stroke="#04724d" stroke-width="3"/>
          <ellipse id="Ellipse_122" data-name="Ellipse 122" cx="12" cy="11.5" rx="12" ry="11.5" transform="translate(26.49 27.504)" fill="#fff"/>
          <path id="Icon_ionic-ios-arrow-round-down" data-name="Icon ionic-ios-arrow-round-down" d="M24.49,20.784a.919.919,0,0,0-1.294-.007l-4.282,4.268V9.782a.914.914,0,0,0-1.828,0V25.045L12.8,20.77a.925.925,0,0,0-1.294.007.91.91,0,0,0,.007,1.287l5.836,5.794h0a1.026,1.026,0,0,0,.288.19.872.872,0,0,0,.352.07.916.916,0,0,0,.64-.26l5.836-5.794A.9.9,0,0,0,24.49,20.784Z" transform="translate(19.743 20.125)" fill="#04724d" stroke="#04724d" stroke-width="1"/>
        </g>
      </g>
    </g>
  </g>
</svg>
