<svg xmlns="http://www.w3.org/2000/svg" width="13.397" height="13.397" viewBox="0 0 13.397 13.397"><defs><style>.a{fill:#363636;}</style></defs><path class="a" d="M19.079,15.73a8.472,8.472,0,0,1-2.657-.424.747.747,0,0,0-.755.182l-1.637,1.641a11.228,11.228,0,0,1-4.9-4.9l1.637-1.641a.747.747,0,0,0,.182-.755,8.513,8.513,0,0,1-.424-2.661.742.742,0,0,0-.744-.744h-2.6a.744.744,0,0,0-.744.744A12.651,12.651,0,0,0,19.079,19.823a.742.742,0,0,0,.744-.744v-2.6a.742.742,0,0,0-.744-.744Z" transform="translate(-6.427 -6.427)"/></svg>