<svg xmlns="http://www.w3.org/2000/svg" width="68" height="56" viewBox="0 0 68 56">
  <g id="Group_1732" data-name="Group 1732" transform="translate(-1213 -293)">
    <rect id="Rectangle_1679" data-name="Rectangle 1679" width="68" height="56" rx="10" transform="translate(1213 293)" fill="#fff"/>
    <g id="conversation" transform="translate(1230.068 304.068)">
      <path id="Path_1747" data-name="Path 1747" d="M21.921,15.034,21.9,2.97A2.981,2.981,0,0,0,18.92,0H2.976A2.98,2.98,0,0,0,0,2.976V15.013A2.98,2.98,0,0,0,2.976,17.99h2.05v1.984a.993.993,0,0,0,1.587.794l3.7-2.777,8.62.026A2.974,2.974,0,0,0,21.921,15.034ZM10.913,13.955a.992.992,0,1,1,.992-.992A.992.992,0,0,1,10.913,13.955Zm1.058-4.139v.1a.992.992,0,1,1-1.984,0V9.3A1.325,1.325,0,0,1,11.12,7.993a1,1,0,0,0,.851-.982,1.033,1.033,0,0,0-1.708-.76A.992.992,0,1,1,9.194,4.58,3.119,3.119,0,0,1,12.407,4.4a2.977,2.977,0,0,1-.436,5.418Z" fill="#eab358"/>
      <path id="Path_1748" data-name="Path 1748" d="M199.916,210.995h-6.984l0,1.075a4.96,4.96,0,0,1-4,4.877h8.929a.992.992,0,1,1,0,1.984H185.961a.992.992,0,0,1-.4-1.9L181,217.02v8.923a2.98,2.98,0,0,0,2.976,2.976h6.711l3.759,1.879a.993.993,0,0,0,1.436-.887v-.992h4.035a2.98,2.98,0,0,0,2.976-2.976V213.971A2.98,2.98,0,0,0,199.916,210.995Zm-2.05,11.9H185.961a.992.992,0,1,1,0-1.984h11.905a.992.992,0,1,1,0,1.984Z" transform="translate(-169.029 -197.04)" fill="#eab358"/>
    </g>
  </g>
</svg>
