<svg xmlns="http://www.w3.org/2000/svg" width="24" height="24" viewBox="0 0 24 24">
  <g id="Group_2498" data-name="Group 2498" transform="translate(-1194.584 -457.295)">
    <path id="Path_1422" data-name="Path 1422" d="M12,0A12,12,0,1,1,0,12,12,12,0,0,1,12,0Z" transform="translate(1194.584 457.295)" fill="#e6ecf6"/>
    <g id="g1624" transform="translate(1198.209 499.813)">
      <path id="path2504" d="M8.375-38.005a1.866,1.866,0,0,0-.974.273q-2.428,1.6-4.858,3.2l5.318,4.843a.826.826,0,0,0,1.025,0q2.66-2.42,5.319-4.843-2.429-1.6-4.858-3.2a1.867,1.867,0,0,0-.974-.273ZM2-33.8v7.156a1.373,1.373,0,0,0,1.366,1.366H13.384a1.373,1.373,0,0,0,1.366-1.366V-33.8L9.491-29.009a1.688,1.688,0,0,1-2.232,0L2-33.8Z" fill="#21745d"/>
    </g>
  </g>
</svg>
