<svg xmlns="http://www.w3.org/2000/svg" width="26" height="26" viewBox="0 0 26 26">
  <g id="Group_1706" data-name="Group 1706" transform="translate(-435 -336.607)">
    <circle id="Ellipse_179" data-name="Ellipse 179" cx="13" cy="13" r="13" transform="translate(435 336.607)" fill="rgba(33,116,93,0.08)"/>
    <g id="skill-development" transform="translate(439.671 339.704)">
      <path id="Path_1731" data-name="Path 1731" d="M7.686,250.872V249.2a2.186,2.186,0,0,1,0-4.371v-1.639H4.632l.26-.73a1.069,1.069,0,0,0,.062-.363,1.093,1.093,0,0,0-2.186,0,1.069,1.069,0,0,0,.062.363l.26.73H0A8.317,8.317,0,0,0,7.686,250.872Z" transform="translate(0 -232.221)" fill="#21745d"/>
      <path id="Path_1732" data-name="Path 1732" d="M3.861,67.2a2.188,2.188,0,0,1,2.186,2.186H7.686V66.328l.73.26a1.093,1.093,0,1,0,0-2.061l-.73.26V61.76A8.256,8.256,0,0,0,0,69.382H1.676A2.188,2.188,0,0,1,3.861,67.2Z" transform="translate(0 -59.51)" fill="#21745d"/>
      <path id="Path_1733" data-name="Path 1733" d="M190.808,301H189.2a2.186,2.186,0,0,1-4.371,0h-1.639v3.055l-.73-.26a1.093,1.093,0,1,0,0,2.061l.73-.26v3.091A8.256,8.256,0,0,0,190.808,301Z" transform="translate(-174.406 -290.035)" fill="#21745d"/>
      <path id="Path_1734" data-name="Path 1734" d="M248.65,4.408V2.222h-2.186a2.186,2.186,0,1,0-4.371,0H241V3.861a2.186,2.186,0,0,1,0,4.371V9.872h3.054l-.26.73a1.069,1.069,0,0,0-.062.363,1.093,1.093,0,0,0,2.186,0,1.068,1.068,0,0,0-.062-.363l-.26-.73h3.054V8.779a2.219,2.219,0,0,0,2.222-2.186A2.219,2.219,0,0,0,248.65,4.408Z" transform="translate(-232.221)" fill="#c69e5d"/>
    </g>
  </g>
</svg>
