<svg id="skills" xmlns="http://www.w3.org/2000/svg" width="11.793" height="11.792" viewBox="0 0 11.793 11.792">
  <path id="Path_1785" data-name="Path 1785" d="M364.052,2.16a.345.345,0,0,0,0-.489L362.482.1a.345.345,0,0,0-.489,0l-1.326,1.326,2.059,2.059Z" transform="translate(-352.361 0)" fill="#c69e5d"/>
  <path id="Path_1786" data-name="Path 1786" d="M.025,389.408a.345.345,0,0,0,.449.449l2.405-.962L.987,387Z" transform="translate(0 -378.089)" fill="#c69e5d"/>
  <path id="Path_1787" data-name="Path 1787" d="M9.238,6.676a2.56,2.56,0,0,0-.461.042L5.1,3.044A2.567,2.567,0,0,0,1.474.264a.345.345,0,0,0-.1.556L2.615,2.056l-.558.558L.821,1.378a.345.345,0,0,0-.556.1A2.568,2.568,0,0,0,3.044,5.1L6.719,8.776a2.566,2.566,0,0,0,3.629,2.78.346.346,0,0,0,.1-.556L9.207,9.764l.558-.558L11,10.442a.345.345,0,0,0,.556-.1A2.565,2.565,0,0,0,9.238,6.676Z" transform="translate(-0.014 -0.014)" fill="#c69e5d"/>
  <path id="Path_1788" data-name="Path 1788" d="M0,0H2.768V2.911H0Z" transform="translate(1.391 8.342) rotate(-45)" fill="#c69e5d"/>
  <path id="Path_1789" data-name="Path 1789" d="M0,0H2.027V2.911H0Z" transform="translate(6.384 3.35) rotate(-45)" fill="#c69e5d"/>
</svg>
