<svg xmlns="http://www.w3.org/2000/svg" width="26" height="24" viewBox="0 0 26 24">
  <g id="Group_1991" data-name="Group 1991" transform="translate(0.023 0.361)">
    <rect id="Rectangle_1901" data-name="Rectangle 1901" width="26" height="24" rx="6" transform="translate(-0.023 -0.361)" fill="#fff"/>
    <g id="voice" transform="translate(5.501 4.582)">
      <path id="Path_1819" data-name="Path 1819" d="M10.561,5.771V5.28A5.28,5.28,0,1,0,0,5.28,6.633,6.633,0,0,0,1.349,9.558a2.309,2.309,0,0,1,.579,1.289V14.3a.432.432,0,0,0,.432.432H7.712a.432.432,0,0,0,.432-.432v-.863h1.985a.432.432,0,0,0,.432-.432V11.711a.432.432,0,0,0-.191-.358c-.13-.087-.384-.333-.384-.5s.224-.4.384-.5a.432.432,0,0,0,.191-.358V9.121h.719a.432.432,0,0,0,.4-.594Z" transform="translate(-0.001)" fill="#21745d"/>
      <path id="Path_1820" data-name="Path 1820" d="M472.7,310.474a.432.432,0,0,0-.8.322,3.61,3.61,0,0,1,0,2.692.432.432,0,1,0,.8.322,4.474,4.474,0,0,0,0-3.336Z" transform="translate(-458.288 -301.278)" fill="#c69e5d"/>
      <path id="Path_1821" data-name="Path 1821" d="M416.465,332.612a.431.431,0,0,0-.24.561,1.884,1.884,0,0,1,0,1.4.432.432,0,1,0,.8.322,2.747,2.747,0,0,0,0-2.048A.432.432,0,0,0,416.465,332.612Z" transform="translate(-404.219 -323.012)" fill="#c69e5d"/>
    </g>
  </g>
</svg>
