<svg xmlns="http://www.w3.org/2000/svg" width="51" height="48" viewBox="0 0 51 48"><defs><style>.a{fill:#ffe2e2;}.b{fill:#dd2c2c;}</style></defs><g transform="translate(-447 -159)"><path class="a" d="M6,0H45a6,6,0,0,1,6,6V42a6,6,0,0,1-6,6H6a6,6,0,0,1-6-6V6A6,6,0,0,1,6,0Z" transform="translate(447 159)"/><path class="b" d="M21.974,19.928l6.173-6.173A1.446,1.446,0,0,0,26.1,11.71l-6.173,6.173L13.756,11.71a1.446,1.446,0,1,0-2.046,2.046l6.173,6.173L11.711,26.1a1.446,1.446,0,0,0,2.046,2.046l6.173-6.173L26.1,28.146A1.446,1.446,0,1,0,28.147,26.1Z" transform="translate(452.574 162.783)"/></g></svg>