<svg xmlns="http://www.w3.org/2000/svg" width="26" height="26" viewBox="0 0 26 26">
  <g id="Group_1698" data-name="Group 1698" transform="translate(-9647 -3620)">
    <circle id="Ellipse_179" data-name="Ellipse 179" cx="13" cy="13" r="13" transform="translate(9647 3620)" fill="rgba(33,116,93,0.08)"/>
    <g id="portfolio" transform="translate(9653.33 3626.587)">
      <path id="Path_1725" data-name="Path 1725" d="M211,240h2.565v.855H211Zm0,0" transform="translate(-204.986 -233.16)"/>
      <path id="Path_1726" data-name="Path 1726" d="M11.839,82.9h-2.4v.427a.427.427,0,0,1-.428.428H5.586a.427.427,0,0,1-.428-.428V82.9h-2.4a1.281,1.281,0,0,1-1.217-.877L0,77.41v9.336a1.284,1.284,0,0,0,1.283,1.283H13.31a1.284,1.284,0,0,0,1.283-1.283V77.411l-1.537,4.612A1.281,1.281,0,0,1,11.839,82.9Zm0,0" transform="translate(0 -75.204)" fill="#21745d"/>
      <path id="Path_1727" data-name="Path 1727" d="M34.08,0H30.66a1.284,1.284,0,0,0-1.283,1.283V1.71H25.809l1.612,4.838a.427.427,0,0,0,.406.292h2.4V6.413a.427.427,0,0,1,.428-.428h3.42a.427.427,0,0,1,.428.428V6.84h2.4a.427.427,0,0,0,.406-.292L38.93,1.71H35.362V1.283A1.284,1.284,0,0,0,34.08,0ZM30.232,1.71V1.283A.428.428,0,0,1,30.66.855h3.42a.428.428,0,0,1,.428.428V1.71Zm0,0" transform="translate(-25.073)" fill="#c69e5d"/>
    </g>
  </g>
</svg>
