<svg xmlns="http://www.w3.org/2000/svg" width="24" height="24" viewBox="0 0 24 24">
  <g id="Group_2493" data-name="Group 2493" transform="translate(-1194.584 -286.295)">
    <path id="Path_1422" data-name="Path 1422" d="M12,0A12,12,0,1,1,0,12,12,12,0,0,1,12,0Z" transform="translate(1194.584 286.295)" fill="#e6ecf6"/>
    <g id="envelope" transform="translate(1199.922 229.299)">
      <g id="Group_2492" data-name="Group 2492" transform="translate(0 64)">
        <g id="Group_2491" data-name="Group 2491">
          <path id="Path_1899" data-name="Path 1899" d="M7.012,64.811c1.828,1.548,5.037,4.273,5.98,5.122a.557.557,0,0,0,.806,0c.944-.85,4.152-3.575,5.981-5.123a.277.277,0,0,0,.039-.383A1.1,1.1,0,0,0,18.946,64H7.844a1.1,1.1,0,0,0-.871.428A.277.277,0,0,0,7.012,64.811Z" transform="translate(-6.734 -64)" fill="#21745d"/>
          <path id="Path_1900" data-name="Path 1900" d="M13.161,126.437a.276.276,0,0,0-.3.04c-2.028,1.719-4.616,3.922-5.43,4.656a1.124,1.124,0,0,1-1.549,0c-.868-.782-3.774-3.253-5.429-4.655a.278.278,0,0,0-.457.212v6.98a1.111,1.111,0,0,0,1.11,1.11h11.1a1.111,1.111,0,0,0,1.11-1.11v-6.98A.277.277,0,0,0,13.161,126.437Z" transform="translate(0 -124.788)" fill="#21745d"/>
        </g>
      </g>
    </g>
  </g>
</svg>
