<svg xmlns="http://www.w3.org/2000/svg" width="100.999" height="88.374" viewBox="0 0 100.999 88.374"><defs><style>.a{fill:#04724d;}</style></defs><g transform="translate(0 -2.25)"><path class="a" d="M86.224,28.644A29.588,29.588,0,0,0,32.47,15.013a13.983,13.983,0,0,0-5.306-1.046c-7.713,0-13.966,6.786-14.085,14.479A19.269,19.269,0,0,0,0,46.733c0,9.9,8.029,18.641,17.931,18.641h30V37.383l-9.449,9.311a2.567,2.567,0,1,1-3.61-3.649L48.685,29.433h0a2.509,2.509,0,0,1,.809-.533,2.447,2.447,0,0,1,.986-.2,2.571,2.571,0,0,1,1.8.73L66.083,43.044a2.567,2.567,0,0,1-3.61,3.649l-9.409-9.311V65.374h30c9.9,0,17.931-8.739,17.931-18.641A18.413,18.413,0,0,0,86.224,28.644Z"/><path class="a" d="M17.086,47.435a2.564,2.564,0,1,0,5.129,0V24.75H17.086Z" transform="translate(30.849 40.624)"/></g></svg>