<svg xmlns="http://www.w3.org/2000/svg" width="28" height="26" viewBox="0 0 28 26">
  <g id="Group_2272" data-name="Group 2272" transform="translate(-264 -257)">
    <rect id="Rectangle_1901" data-name="Rectangle 1901" width="28" height="26" rx="6" transform="translate(264 257)" fill="#fff"/>
    <g id="voice" transform="translate(269.984 261.984)">
      <path id="Path_1819" data-name="Path 1819" d="M11.491,6.279V5.745A5.745,5.745,0,1,0,0,5.745,7.218,7.218,0,0,0,1.468,10.4a2.512,2.512,0,0,1,.63,1.4V15.56a.47.47,0,0,0,.47.47H8.391a.47.47,0,0,0,.47-.47v-.939h2.16a.47.47,0,0,0,.47-.47V12.742a.47.47,0,0,0-.208-.39c-.141-.095-.418-.362-.418-.549,0-.171.244-.43.418-.549a.47.47,0,0,0,.208-.39V9.925h.783a.47.47,0,0,0,.435-.646Z" fill="#21745d"/>
      <path id="Path_1820" data-name="Path 1820" d="M472.771,310.5a.47.47,0,0,0-.872.35,3.928,3.928,0,0,1,0,2.929.47.47,0,1,0,.872.35,4.868,4.868,0,0,0,0-3.63Z" transform="translate(-457.091 -300.492)" fill="#c69e5d"/>
      <path id="Path_1821" data-name="Path 1821" d="M416.489,332.615a.47.47,0,0,0-.261.611,2.05,2.05,0,0,1,0,1.528.47.47,0,1,0,.871.35,2.989,2.989,0,0,0,0-2.229A.47.47,0,0,0,416.489,332.615Z" transform="translate(-403.163 -322.169)" fill="#c69e5d"/>
    </g>
  </g>
</svg>
