<svg id="Group_2424" data-name="Group 2424" xmlns="http://www.w3.org/2000/svg" width="33.658" height="33.659" viewBox="0 0 33.658 33.659">
  <ellipse id="Ellipse_283" data-name="Ellipse 283" cx="16.829" cy="16.83" rx="16.829" ry="16.83" transform="translate(0 0)" fill="#d8dce2"/>
  <g id="whatsapp_1_" data-name="whatsapp (1)" transform="translate(7.059 7.059)">
    <path id="Path_1837" data-name="Path 1837" d="M9.772,0h0A9.764,9.764,0,0,0,1.86,15.5L.642,19.126l3.755-1.2A9.768,9.768,0,1,0,9.772,0Z" fill="#4caf50"/>
    <path id="Path_1838" data-name="Path 1838" d="M118.627,126.416a2.757,2.757,0,0,1-1.917,1.379c-.51.109-1.177.2-3.422-.735a12.239,12.239,0,0,1-4.864-4.3,5.58,5.58,0,0,1-1.16-2.947,3.119,3.119,0,0,1,1-2.378,1.419,1.419,0,0,1,1-.351c.121,0,.23.006.327.011.287.012.431.029.62.482.236.568.81,1.97.878,2.114a.582.582,0,0,1,.042.529,1.688,1.688,0,0,1-.316.448c-.144.166-.281.293-.425.471-.132.155-.281.321-.115.608a8.673,8.673,0,0,0,1.585,1.97,7.183,7.183,0,0,0,2.291,1.413.618.618,0,0,0,.689-.109,11.821,11.821,0,0,0,.763-1.011.545.545,0,0,1,.7-.212c.264.092,1.66.782,1.947.924s.476.213.546.333A2.433,2.433,0,0,1,118.627,126.416Z" transform="translate(-103.17 -112.619)" fill="#fafafa"/>
  </g>
</svg>
