<svg id="Group_1931" data-name="Group 1931" xmlns="http://www.w3.org/2000/svg" width="11.69" height="8.894" viewBox="0 0 11.69 8.894">
  <path id="Path_1468" data-name="Path 1468" d="M65.21,24.2l-2.984-2.984a.254.254,0,0,0-.35,0l-.647.647a.247.247,0,0,0,0,.35l2.162,2.162L61.23,26.541a.247.247,0,0,0,0,.35l.647.647a.247.247,0,0,0,.35,0l2.983-2.983A.248.248,0,0,0,65.21,24.2Z" transform="translate(-53.592 -19.933)" fill="#fff"/>
  <path id="Path_1469" data-name="Path 1469" d="M4.052,26.523,1.89,24.361,4.052,22.2a.247.247,0,0,0,0-.35L3.405,21.2a.247.247,0,0,0-.35,0L.072,24.186a.247.247,0,0,0,0,.35l2.984,2.983a.247.247,0,0,0,.35,0l.647-.647A.247.247,0,0,0,4.052,26.523Z" transform="translate(0.001 -19.915)" fill="#fff"/>
  <path id="Path_1470" data-name="Path 1470" d="M36.716,11.588a.248.248,0,0,0-.147-.119l-.524-.155a.247.247,0,0,0-.307.167L33.3,19.725a.247.247,0,0,0,.167.307l.524.155a.247.247,0,0,0,.307-.167l2.434-8.244A.247.247,0,0,0,36.716,11.588Z" transform="translate(-29.175 -11.304)" fill="#fff"/>
</svg>
