<svg xmlns="http://www.w3.org/2000/svg" width="17.781" height="23.396" viewBox="0 0 17.781 23.396"><defs><style>.a{fill:#f1f3f6;}.b{fill:none;stroke:#04724d;stroke-linecap:round;stroke-width:2.5px;}</style></defs><path class="a" d="M21.713,9.729h5.323a.29.29,0,0,0,.292-.292h0A1.731,1.731,0,0,0,26.7,8.1l-4.463-3.72a1.879,1.879,0,0,0-1.2-.433h0a.432.432,0,0,0-.433.433V8.618A1.111,1.111,0,0,0,21.713,9.729Z" transform="translate(-9.547 -3.939)"/><path class="a" d="M16.846,8.617V3.937H9.184A1.877,1.877,0,0,0,7.312,5.809V25.462a1.877,1.877,0,0,0,1.872,1.872H23.222a1.877,1.877,0,0,0,1.872-1.872V11.249H19.479A2.636,2.636,0,0,1,16.846,8.617Z" transform="translate(-7.313 -3.938)"/><g transform="translate(4.33 10.975)"><g transform="translate(0 0)"><path class="b" d="M-266.737,9963.807h8.783" transform="translate(266.737 -9959.415)"/><path class="b" d="M0,0H8.783" transform="translate(4.392 0) rotate(90)"/></g></g></svg>