<svg xmlns="http://www.w3.org/2000/svg" width="20.518" height="26.931" viewBox="0 0 20.518 26.931"><defs><style>.a{fill:none;stroke:#f1f3f6;stroke-linecap:round;stroke-linejoin:round;stroke-width:2.5px;}.b{fill:#f1f3f6;}</style></defs><g transform="translate(-52.75 -492.75)"><g transform="translate(54 489.5)"><path class="a" d="M19.518,28.977V26.818a4.581,4.581,0,0,0-4.8-4.318H6.3a4.581,4.581,0,0,0-4.8,4.318v2.159" transform="translate(-1.5 -5.046)"/><path class="a" d="M15.386,8.818A4.318,4.318,0,1,1,11.068,4.5a4.318,4.318,0,0,1,4.318,4.318Z" transform="translate(-2.022)"/></g><path class="b" d="M11.1,7.924a3.092,3.092,0,0,0,0-.879l.946-.74a.226.226,0,0,0,.054-.287l-.9-1.552a.225.225,0,0,0-.274-.1l-1.117.448a3.277,3.277,0,0,0-.758-.44l-.17-1.188A.219.219,0,0,0,8.666,3H6.872a.219.219,0,0,0-.22.188l-.17,1.188a3.446,3.446,0,0,0-.758.44L4.608,4.368a.219.219,0,0,0-.274.1l-.9,1.552a.221.221,0,0,0,.054.287l.946.74a3.092,3.092,0,0,0,0,.879l-.946.74a.226.226,0,0,0-.054.287l.9,1.552a.225.225,0,0,0,.274.1l1.117-.448a3.277,3.277,0,0,0,.758.44l.17,1.188a.219.219,0,0,0,.22.188H8.666a.219.219,0,0,0,.22-.188l.17-1.188a3.446,3.446,0,0,0,.758-.44l1.117.448a.219.219,0,0,0,.274-.1l.9-1.552a.226.226,0,0,0-.054-.287l-.946-.74ZM7.769,9.054a1.57,1.57,0,1,1,1.57-1.57A1.571,1.571,0,0,1,7.769,9.054Z" transform="translate(55.594 507.712)"/></g></svg>