<svg xmlns="http://www.w3.org/2000/svg" width="59.768" height="51.865" viewBox="0 0 59.768 51.865">
  <g id="_x38_7" transform="translate(-2.998 -4.1)">
    <path id="Path_1724" data-name="Path 1724" d="M61.761,45.211,39.426,7.716a7.715,7.715,0,0,0-13.072,0L3.994,45.211a6.861,6.861,0,0,0,.025,7.161,7.579,7.579,0,0,0,6.524,3.592H55.237a7.537,7.537,0,0,0,6.5-3.592,6.807,6.807,0,0,0,.025-7.161ZM35.368,41.238a2.493,2.493,0,0,1-4.98,0v-.381a2.493,2.493,0,0,1,4.98,0Zm0-8.874a2.493,2.493,0,0,1-4.98,0V21.729a2.493,2.493,0,0,1,4.98,0Z" transform="translate(0 0)" fill="#e4ae55"/>
  </g>
</svg>
